<?xml version="1.0" encoding="UTF-8"?>
<svg version="1.1" xmlns="http://www.w3.org/2000/svg" width="512" height="512">
<path d="M0 0 C4.62463295 2.64398207 7.31777718 6.02690374 10 10.625 C12.73123868 21.54995474 8.60162003 32.006285 5.55712891 42.4206543 C5.00392205 44.34911521 4.45188566 46.27791222 3.90092468 48.20701599 C2.40125994 53.44535078 0.88529989 58.67884413 -0.63354826 63.91164374 C-2.24031718 69.4580875 -3.83178923 75.00891786 -5.42495728 80.5592804 C-8.46350659 91.1365416 -11.51545125 101.70988816 -14.57231963 112.2818678 C-18.31207694 125.21787632 -22.03508185 138.15869281 -25.7578125 151.09960938 C-29.67813534 164.72543674 -33.60047507 178.35066991 -37.53338623 191.97286987 C-45.54305984 219.71820176 -45.54305984 219.71820176 -53.4648149 247.48872745 C-54.12393943 249.81330267 -54.78370998 252.13769361 -55.4436512 254.46203709 C-57.80346265 262.77361099 -57.80346265 262.77361099 -60.14817429 271.08945274 C-61.14684361 274.64280995 -62.15216304 278.19422401 -63.15869141 281.74536133 C-63.43957737 282.75446627 -63.72046333 283.76357121 -64.00986099 284.80325508 C-66.49565626 293.53317628 -69.21949858 299.94018509 -77 305.1875 C-82.97193492 307.32838233 -88.79079118 307.38587128 -94.625 304.75 C-99.24963295 302.10601793 -101.94277718 298.72309626 -104.625 294.125 C-107.35623868 283.20004526 -103.22662003 272.743715 -100.18212891 262.3293457 C-99.62892205 260.40088479 -99.07688566 258.47208778 -98.52592468 256.54298401 C-97.02625994 251.30464922 -95.51029989 246.07115587 -93.99145174 240.83835626 C-92.38468282 235.2919125 -90.79321077 229.74108214 -89.20004272 224.1907196 C-86.16149341 213.6134584 -83.10954875 203.04011184 -80.05268037 192.4681322 C-76.31292307 179.53212373 -72.58989305 166.59131438 -68.8671875 153.65039062 C-64.94651617 140.02298668 -61.02371718 126.39621178 -57.0894165 112.7727356 C-51.75522967 94.29908723 -46.42122003 75.82588188 -41.1908133 57.32252896 C-40.53580417 55.00569253 -39.87988703 52.68911513 -39.22367668 50.37261868 C-36.8781852 42.09477865 -36.8781852 42.09477865 -34.55226517 33.81142616 C-33.5627656 30.27236947 -32.56423043 26.73597697 -31.56396484 23.19995117 C-31.28824017 22.2011688 -31.01251549 21.20238644 -30.72843552 20.17333794 C-26.40657704 4.99342427 -26.40657704 4.99342427 -20.75 1.4375 C-20.17121094 1.05722656 -19.59242188 0.67695312 -18.99609375 0.28515625 C-13.18740844 -2.8550379 -5.93758495 -2.72045242 0 0 Z " fill="#D89E5F" transform="translate(303.3125,103.625)"/>
<path d="M0 0 C4.28582691 2.66188091 7.66795719 6.27344412 11.19698715 9.84560966 C12.05325699 10.69647652 12.90952682 11.54734337 13.79174423 12.42399406 C16.12116979 14.74310642 18.44147104 17.07087462 20.75744581 19.40340686 C23.18984921 21.84973406 25.63247511 24.28581869 28.07360458 26.72343254 C32.16734141 30.8144743 36.25295093 34.91349609 40.3337059 39.01748466 C45.04711115 43.75753969 49.77287344 48.4849923 54.50548017 53.20587057 C59.06803318 57.75763731 63.62204913 62.31785262 68.1721344 66.88208008 C70.1047881 68.82048173 72.04031394 70.75594623 73.97821808 72.68909836 C76.68096537 75.38893955 79.37382187 78.0982686 82.06417465 80.81045341 C82.86728073 81.60905785 83.67038681 82.40766228 84.49782944 83.23046684 C85.59527985 84.3427742 85.59527985 84.3427742 86.71490097 85.47755241 C87.3516091 86.11669044 87.98831722 86.75582846 88.64431953 87.4143343 C91.88232557 91.42293354 92.53538535 95.27663191 92.55489731 100.33022881 C92.57165512 101.32925224 92.58841293 102.32827568 92.60567856 103.35757256 C91.66878584 111.18516011 86.25455009 115.814523 80.93478012 121.10439873 C80.08727188 121.95877022 79.23976364 122.81314171 78.36657333 123.69340324 C76.04972214 126.02538204 73.72625567 128.35049313 71.39897633 130.67205787 C69.45289624 132.61503921 67.51143698 134.56260539 65.56992412 136.51014882 C60.98774625 141.1063543 56.39783659 145.69473486 51.80294418 150.27822685 C47.07137009 154.99832013 42.35271764 159.73105128 37.64030194 164.47026557 C33.5854336 168.54732276 29.52281447 172.61654028 25.45390582 176.67958528 C23.02753034 179.10259777 20.60410968 181.52838318 18.18805313 183.961689 C15.49071907 186.67390743 12.78093717 189.37305399 10.06759262 192.06924248 C9.2746077 192.87189537 8.48162277 193.67454826 7.664608 194.50152397 C2.459076 199.63840951 -2.49243175 203.81566799 -10.19510269 203.83022881 C-15.734724 203.6131738 -20.22250388 201.74123405 -24.29666519 197.96694756 C-29.0310188 192.60965268 -29.97065367 188.09271748 -30.21854019 181.18569756 C-28.96782288 173.60719857 -24.29692682 168.35649984 -18.96951675 163.15054131 C-18.29593628 162.47637672 -17.6223558 161.80221214 -16.9283638 161.10761833 C-14.719341 158.90136241 -12.49653327 156.70958272 -10.27322769 154.51772881 C-8.73107429 152.9830427 -7.18980683 151.44746586 -5.64938736 149.91103935 C-1.60743968 145.88430922 2.44637807 141.86974061 6.50283432 137.85763359 C10.64595193 133.75555203 14.77766366 129.64201717 18.91036606 125.52944756 C27.00995604 117.47266002 35.12213941 109.42868146 43.24239731 101.39272881 C41.97026172 98.60411576 40.66549287 96.57072205 38.48522568 94.42196465 C37.92450867 93.86427895 37.36379166 93.30659325 36.78608322 92.73200798 C36.17305847 92.13245796 35.56003372 91.53290794 34.92843246 90.91518974 C34.28107635 90.27396675 33.63372025 89.63274376 32.96674728 88.97208977 C31.56165947 87.58129835 30.15434348 86.19275524 28.74507141 84.80620384 C26.51204381 82.60799052 24.28620738 80.40273069 22.06231308 78.19528008 C15.73850795 71.92034359 9.40374101 65.6565632 3.05978012 59.40200615 C-0.82196573 55.57397328 -4.69379431 51.73613627 -8.55977631 47.89218712 C-10.03193151 46.43241257 -11.50786648 44.9764393 -12.98768616 43.52443504 C-15.06270702 41.48806145 -17.12491314 39.43946266 -19.18484879 37.38784599 C-19.79382507 36.7963929 -20.40280136 36.2049398 -21.03023148 35.59556389 C-25.5722378 31.0326395 -29.02206031 26.11370793 -30.28885269 19.70522881 C-30.19908439 13.0623744 -28.94580519 7.82550574 -24.33182144 2.85757256 C-16.82499931 -3.79576076 -8.80365489 -4.51850744 0 0 Z " fill="#E4AA69" transform="translate(355.7576026916504,155.607271194458)"/>
<path d="M0 0 C4.67441628 2.6351789 7.35954224 5.99135813 10.0625 10.625 C11.79358339 17.54933358 11.27901847 22.94694534 8.04122162 29.24473572 C5.84759721 32.86378892 2.97461265 35.67317086 -0.03808594 38.6171875 C-0.71166641 39.29135208 -1.38524689 39.96551666 -2.07923889 40.66011047 C-4.28826169 42.86636639 -6.51106942 45.05814609 -8.734375 47.25 C-10.2765284 48.78468611 -11.81779586 50.32026294 -13.35821533 51.85668945 C-17.40016301 55.88341959 -21.45398077 59.8979882 -25.51043701 63.91009521 C-29.65355462 68.01217677 -33.78526635 72.12571163 -37.91796875 76.23828125 C-46.01755874 84.29506878 -54.1297421 92.33904735 -62.25 100.375 C-60.97786442 103.16361304 -59.67309556 105.19700676 -57.49282837 107.34576416 C-56.65175285 108.18229271 -56.65175285 108.18229271 -55.79368591 109.03572083 C-55.18066116 109.63527084 -54.56763641 110.23482086 -53.93603516 110.85253906 C-53.28867905 111.49376205 -52.64132294 112.13498505 -51.97434998 112.79563904 C-50.56926217 114.18643046 -49.16194617 115.57497357 -47.7526741 116.96152496 C-45.5196465 119.15973829 -43.29381007 121.36499812 -41.06991577 123.57244873 C-34.74611064 129.84738522 -28.4113437 136.11116561 -22.06738281 142.36572266 C-18.18563696 146.19375553 -14.31380838 150.03159254 -10.44782639 153.87554169 C-8.97567119 155.33531623 -7.49973621 156.7912895 -6.01991653 158.24329376 C-3.94489567 160.27966736 -1.88268955 162.32826615 0.17724609 164.37988281 C0.78622238 164.97133591 1.39519867 165.562789 2.02262878 166.17216492 C6.56463511 170.73508931 10.01445761 175.65402087 11.28125 182.0625 C11.1914817 188.7053544 9.93820249 193.94222307 5.32421875 198.91015625 C0.2507223 203.40682107 -4.11774896 204.56925227 -10.67578125 204.8359375 C-19.05486645 203.33558537 -24.46203588 197.73486475 -30.20458984 191.92211914 C-31.4889946 190.64581886 -31.4889946 190.64581886 -32.79934692 189.34373474 C-35.12877248 187.02462238 -37.44907373 184.69685418 -39.7650485 182.36432195 C-42.1974519 179.91799475 -44.6400778 177.48191012 -47.08120728 175.04429626 C-51.1749441 170.95325451 -55.26055363 166.85423271 -59.34130859 162.75024414 C-64.05471384 158.01018912 -68.78047613 153.28273651 -73.51308286 148.56185824 C-78.07563587 144.0100915 -82.62965182 139.44987618 -87.17973709 134.88564873 C-89.11239079 132.94724708 -91.04791663 131.01178258 -92.98582077 129.07863045 C-95.68856806 126.37878926 -98.38142456 123.6694602 -101.07177734 120.95727539 C-101.87488342 120.15867096 -102.6779895 119.36006653 -103.50543213 118.53726196 C-104.60288254 117.42495461 -104.60288254 117.42495461 -105.72250366 116.29017639 C-106.35921179 115.65103837 -106.99591991 115.01190035 -107.65192223 114.35339451 C-110.88992826 110.34479527 -111.54298804 106.4910969 -111.5625 101.4375 C-111.57925781 100.43847656 -111.59601563 99.43945312 -111.61328125 98.41015625 C-110.67638853 90.5825687 -105.26215278 85.95320581 -99.94238281 80.66333008 C-99.09487457 79.80895859 -98.24736633 78.9545871 -97.37417603 78.07432556 C-95.05732483 75.74234677 -92.73385837 73.41723568 -90.40657902 71.09567094 C-88.46049893 69.15268959 -86.51903967 67.20512341 -84.57752681 65.25757998 C-79.99534894 60.66137451 -75.40543928 56.07299394 -70.81054688 51.48950195 C-66.07897278 46.76940868 -61.36032033 42.03667752 -56.64790463 37.29746324 C-52.59303629 33.22040605 -48.53041716 29.15118852 -44.46150851 25.08814353 C-42.03513303 22.66513104 -39.61171237 20.23934562 -37.19565582 17.80603981 C-34.49832177 15.09382137 -31.78853986 12.39467481 -29.07519531 9.69848633 C-28.28221039 8.89583344 -27.48922546 8.09318054 -26.67221069 7.26620483 C-19.02187936 -0.28323995 -10.58041318 -4.7621822 0 0 Z " fill="#E4AA69" transform="translate(175.25,154.625)"/>
</svg>
